{"accessors":[{"bufferView":0,"componentType":5125,"count":20742,"max":[20741.0],"min":[0.0],"type":"SCALAR"},{"bufferView":1,"componentType":5126,"count":20742,"max":[12.764607429504395,4.1464314460754398,2.4638500213623049],"min":[-12.80234146118164,-21.955018997192384,-4.861320495605469],"type":"VEC3"},{"bufferView":2,"componentType":5126,"count":20742,"max":[0.9996933937072754,0.9999364018440247,0.9997708201408386],"min":[-0.9996933937072754,-1.0,-0.9999310970306397],"type":"VEC3"},{"bufferView":3,"componentType":5125,"count":18672,"max":[18671.0],"min":[0.0],"type":"SCALAR"},{"bufferView":4,"componentType":5126,"count":18672,"max":[4.406810760498047,5.543735504150391,3.4948296546936037],"min":[-4.715002536773682,-6.447742462158203,-5.326068878173828],"type":"VEC3"},{"bufferView":5,"componentType":5126,"count":18672,"max":[0.999958336353302,0.9990203380584717,0.9990167617797852],"min":[-0.999647319316864,-0.9805077314376831,-0.9990354776382446],"type":"VEC3"},{"bufferView":6,"componentType":5125,"count":140610,"max":[140597.0],"min":[0.0],"type":"SCALAR"},{"bufferView":7,"componentType":5126,"count":140610,"max":[3.038003921508789,2.0776560306549074,1.0470490455627442],"min":[-3.3434081077575685,0.018358999863266946,-5.334962844848633],"type":"VEC3"},{"bufferView":8,"componentType":5126,"count":140610,"max":[0.9999582767486572,0.9999474287033081,1.0],"min":[-0.9999582767486572,-0.9999481439590454,-0.9997937083244324],"type":"VEC3"},{"bufferView":9,"componentType":5125,"count":8448,"max":[8447.0],"min":[0.0],"type":"SCALAR"},{"bufferView":10,"componentType":5126,"count":8448,"max":[2.0925498008728029,0.3492194414138794,3.9955894947052],"min":[-2.0925498008728029,-0.6435893177986145,-4.4612978200575529e-8],"type":"VEC3"},{"bufferView":11,"componentType":5126,"count":8448,"max":[1.0,0.9999809265136719,1.0],"min":[-1.0,-0.9999998807907105,-1.0],"type":"VEC3"},{"bufferView":12,"componentType":5125,"count":16704,"max":[16703.0],"min":[0.0],"type":"SCALAR"},{"bufferView":13,"componentType":5126,"count":16704,"max":[0.8846061825752258,0.27260342240333559,-13.531274795532227],"min":[-1.1441617012023926,-0.11304978281259537,-15.573490142822266],"type":"VEC3"},{"bufferView":14,"componentType":5126,"count":16704,"max":[0.9923874735832214,0.9988532662391663,0.998729944229126],"min":[-0.9923831820487976,-0.9992536902427673,-0.998730480670929],"type":"VEC3"},{"bufferView":15,"componentType":5125,"count":37044,"max":[37021.0],"min":[0.0],"type":"SCALAR"},{"bufferView":16,"componentType":5126,"count":37044,"max":[3.2543997764587404,-2.0883281230926515,-0.13606323301792146],"min":[2.9727888107299806,-2.735837459564209,-0.8137893676757813],"type":"VEC3"},{"bufferView":17,"componentType":5126,"count":37044,"max":[0.9999494552612305,0.9999926686286926,0.9999468922615051],"min":[-0.9999495148658752,-0.9999932050704956,-0.9999468922615051],"type":"VEC3"},{"bufferView":18,"componentType":5125,"count":37044,"max":[37021.0],"min":[0.0],"type":"SCALAR"},{"bufferView":19,"componentType":5126,"count":37044,"max":[3.2543997764587404,-2.0883281230926515,-0.13606323301792146],"min":[2.9727888107299806,-2.735837459564209,-0.8137893676757813],"type":"VEC3"},{"bufferView":20,"componentType":5126,"count":37044,"max":[0.9999495148658752,0.9999932050704956,0.9999468922615051],"min":[-0.9999494552612305,-0.9999926686286926,-0.9999468922615051],"type":"VEC3"},{"bufferView":21,"componentType":5125,"count":1320,"max":[1319.0],"min":[0.0],"type":"SCALAR"},{"bufferView":22,"componentType":5126,"count":1320,"max":[-4.544403553009033,-2.1516284942626955,-0.11029797047376633],"min":[-4.740600109100342,-2.338222026824951,-0.645367443561554],"type":"VEC3"},{"bufferView":23,"componentType":5126,"count":1320,"max":[0.938307523727417,0.9865952730178833,1.0],"min":[-0.9383073449134827,-0.986595869064331,-1.0],"type":"VEC3"},{"bufferView":24,"componentType":5125,"count":1320,"max":[1319.0],"min":[0.0],"type":"SCALAR"},{"bufferView":25,"componentType":5126,"count":1320,"max":[-4.544403553009033,-2.1516284942626955,-0.11029797047376633],"min":[-4.740600109100342,-2.338222026824951,-0.645367443561554],"type":"VEC3"},{"bufferView":26,"componentType":5126,"count":1320,"max":[0.9383073449134827,0.986595869064331,1.0],"min":[-0.938307523727417,-0.9865952730178833,-1.0],"type":"VEC3"},{"bufferView":27,"componentType":5125,"count":107160,"max":[107070.0],"min":[0.0],"type":"SCALAR"},{"bufferView":28,"componentType":5126,"count":107160,"max":[4.675234794616699,4.691131114959717,3.245277166366577],"min":[-4.675488471984863,-3.986250162124634,-5.261881351470947],"type":"VEC3"},{"bufferView":29,"componentType":5126,"count":107160,"max":[0.9998904466629028,0.9999997019767761,0.999980092048645],"min":[-0.9998903274536133,-0.9999140501022339,-0.9999292492866516],"type":"VEC3"},{"bufferView":30,"componentType":5125,"count":41352,"max":[41340.0],"min":[0.0],"type":"SCALAR"},{"bufferView":31,"componentType":5126,"count":41352,"max":[0.6779659986495972,0.6095750331878662,1.7268860340118409],"min":[-0.675661027431488,-0.5929857492446899,-0.006626890506595373],"type":"VEC3"},{"bufferView":32,"componentType":5126,"count":41352,"max":[0.9989687204360962,0.9996528029441834,0.9998803734779358],"min":[-0.9989683032035828,-0.9999673962593079,-0.9997333288192749],"type":"VEC3"},{"bufferView":33,"componentType":5125,"count":24432,"max":[24431.0],"min":[0.0],"type":"SCALAR"},{"bufferView":34,"componentType":5126,"count":24432,"max":[0.11303679645061493,1.6168160438537598,0.10860270261764527],"min":[-0.11353210359811783,1.140542984008789,-0.13535679876804353],"type":"VEC3"},{"bufferView":35,"componentType":5126,"count":24432,"max":[0.9996059536933899,0.9988949298858643,0.9995439648628235],"min":[-0.9997288584709168,-0.9778082966804504,-0.9999512434005737],"type":"VEC3"},{"bufferView":36,"componentType":5125,"count":35436,"max":[35435.0],"min":[0.0],"type":"SCALAR"},{"bufferView":37,"componentType":5126,"count":35436,"max":[0.10559649765491486,1.6193909645080567,0.11276879906654358],"min":[-0.10611359775066376,1.0861979722976685,-0.3274090886116028],"type":"VEC3"},{"bufferView":38,"componentType":5126,"count":35436,"max":[0.9987039566040039,0.9999485611915588,0.9982675313949585],"min":[-0.9988253116607666,-0.9802584648132324,-0.9983961582183838],"type":"VEC3"},{"bufferView":39,"componentType":5125,"count":49926,"max":[49886.0],"min":[0.0],"type":"SCALAR"},{"bufferView":40,"componentType":5126,"count":49926,"max":[4.717373371124268,4.944450855255127,3.293870449066162],"min":[-4.712130546569824,-4.230868816375732,-5.731175422668457],"type":"VEC3"},{"bufferView":41,"componentType":5126,"count":49926,"max":[0.9999810457229614,0.99986732006073,0.9999431371688843],"min":[-0.999981164932251,-0.9998816847801209,-0.9999257326126099],"type":"VEC3"},{"bufferView":42,"componentType":5125,"count":26562,"max":[26288.0],"min":[0.0],"type":"SCALAR"},{"bufferView":43,"componentType":5126,"count":26562,"max":[0.24021899700164796,1.0908869504928589,0.14338569343090058],"min":[-0.2501649856567383,0.46483200788497927,-0.13848446309566499],"type":"VEC3"},{"bufferView":44,"componentType":5126,"count":26562,"max":[0.9999147653579712,0.9996866583824158,0.9998998641967773],"min":[-0.999507486820221,-0.9923921823501587,-0.9999960660934448],"type":"VEC3"},{"bufferView":45,"componentType":5125,"count":6903,"max":[6899.0],"min":[0.0],"type":"SCALAR"},{"bufferView":46,"componentType":5126,"count":6903,"max":[4.0384368896484379,-8.5714111328125,1.8940505981445313],"min":[-4.1067047119140629,-22.116226196289064,-3.775909423828125],"type":"VEC3"},{"bufferView":47,"componentType":5126,"count":6903,"max":[0.999780535697937,0.7083200216293335,0.9999812841415405],"min":[-0.9998401403427124,-0.8467101454734802,-0.9996554255485535],"type":"VEC3"},{"bufferView":48,"componentType":5125,"count":9180,"max":[9167.0],"min":[0.0],"type":"SCALAR"},{"bufferView":49,"componentType":5126,"count":9180,"max":[7.816708087921143,-3.5449676513671877,2.0255377292633058],"min":[-7.747868537902832,-11.491973876953125,-2.8406081199645998],"type":"VEC3"},{"bufferView":50,"componentType":5126,"count":9180,"max":[0.9937027096748352,0.9998499751091003,0.9982011318206787],"min":[-0.99370276927948,-0.9982126355171204,-0.9996987581253052],"type":"VEC3"}],"asset":{"generator":"SimLab GLTF","version":"2.0"},"bufferViews":[{"buffer":0,"byteLength":82968,"target":34963},{"buffer":0,"byteLength":248904,"byteOffset":82968,"byteStride":12,"target":34962},{"buffer":0,"byteLength":248904,"byteOffset":331872,"byteStride":12,"target":34962},{"buffer":0,"byteLength":74688,"byteOffset":580776,"target":34963},{"buffer":0,"byteLength":224064,"byteOffset":655464,"byteStride":12,"target":34962},{"buffer":0,"byteLength":224064,"byteOffset":879528,"byteStride":12,"target":34962},{"buffer":0,"byteLength":562440,"byteOffset":1103592,"target":34963},{"buffer":0,"byteLength":1687320,"byteOffset":1666032,"byteStride":12,"target":34962},{"buffer":0,"byteLength":1687320,"byteOffset":3353352,"byteStride":12,"target":34962},{"buffer":0,"byteLength":33792,"byteOffset":5040672,"target":34963},{"buffer":0,"byteLength":101376,"byteOffset":5074464,"byteStride":12,"target":34962},{"buffer":0,"byteLength":101376,"byteOffset":5175840,"byteStride":12,"target":34962},{"buffer":0,"byteLength":66816,"byteOffset":5277216,"target":34963},{"buffer":0,"byteLength":200448,"byteOffset":5344032,"byteStride":12,"target":34962},{"buffer":0,"byteLength":200448,"byteOffset":5544480,"byteStride":12,"target":34962},{"buffer":0,"byteLength":148176,"byteOffset":5744928,"target":34963},{"buffer":0,"byteLength":444528,"byteOffset":5893104,"byteStride":12,"target":34962},{"buffer":0,"byteLength":444528,"byteOffset":6337632,"byteStride":12,"target":34962},{"buffer":0,"byteLength":148176,"byteOffset":6782160,"target":34963},{"buffer":0,"byteLength":444528,"byteOffset":6930336,"byteStride":12,"target":34962},{"buffer":0,"byteLength":444528,"byteOffset":7374864,"byteStride":12,"target":34962},{"buffer":0,"byteLength":5280,"byteOffset":7819392,"target":34963},{"buffer":0,"byteLength":15840,"byteOffset":7824672,"byteStride":12,"target":34962},{"buffer":0,"byteLength":15840,"byteOffset":7840512,"byteStride":12,"target":34962},{"buffer":0,"byteLength":5280,"byteOffset":7856352,"target":34963},{"buffer":0,"byteLength":15840,"byteOffset":7861632,"byteStride":12,"target":34962},{"buffer":0,"byteLength":15840,"byteOffset":7877472,"byteStride":12,"target":34962},{"buffer":0,"byteLength":428640,"byteOffset":7893312,"target":34963},{"buffer":0,"byteLength":1285920,"byteOffset":8321952,"byteStride":12,"target":34962},{"buffer":0,"byteLength":1285920,"byteOffset":9607872,"byteStride":12,"target":34962},{"buffer":0,"byteLength":165408,"byteOffset":10893792,"target":34963},{"buffer":0,"byteLength":496224,"byteOffset":11059200,"byteStride":12,"target":34962},{"buffer":0,"byteLength":496224,"byteOffset":11555424,"byteStride":12,"target":34962},{"buffer":0,"byteLength":97728,"byteOffset":12051648,"target":34963},{"buffer":0,"byteLength":293184,"byteOffset":12149376,"byteStride":12,"target":34962},{"buffer":0,"byteLength":293184,"byteOffset":12442560,"byteStride":12,"target":34962},{"buffer":0,"byteLength":141744,"byteOffset":12735744,"target":34963},{"buffer":0,"byteLength":425232,"byteOffset":12877488,"byteStride":12,"target":34962},{"buffer":0,"byteLength":425232,"byteOffset":13302720,"byteStride":12,"target":34962},{"buffer":0,"byteLength":199704,"byteOffset":13727952,"target":34963},{"buffer":0,"byteLength":599112,"byteOffset":13927656,"byteStride":12,"target":34962},{"buffer":0,"byteLength":599112,"byteOffset":14526768,"byteStride":12,"target":34962},{"buffer":0,"byteLength":106248,"byteOffset":15125880,"target":34963},{"buffer":0,"byteLength":318744,"byteOffset":15232128,"byteStride":12,"target":34962},{"buffer":0,"byteLength":318744,"byteOffset":15550872,"byteStride":12,"target":34962},{"buffer":0,"byteLength":27612,"byteOffset":15869616,"target":34963},{"buffer":0,"byteLength":82836,"byteOffset":15897228,"byteStride":12,"target":34962},{"buffer":0,"byteLength":82836,"byteOffset":15980064,"byteStride":12,"target":34962},{"buffer":0,"byteLength":36720,"byteOffset":16062900,"target":34963},{"buffer":0,"byteLength":110160,"byteOffset":16099620,"byteStride":12,"target":34962},{"buffer":0,"byteLength":110160,"byteOffset":16209780,"byteStride":12,"target":34962}],"buffers":[{"byteLength":16319940,"uri":"Medium_length_hair_with_bangs.bin"}],"extensionsUsed":["KHR_materials_pbrSpecularGlossiness"],"materials":[{"extensions":{"KHR_materials_pbrSpecularGlossiness":{"diffuseFactor":[0.699999988079071,0.699999988079071,0.699999988079071,1.0],"specularFactor":[0.009999999776482582,0.009999999776482582,0.009999999776482582],"glossinessFactor":0.5}},"name":"openPBR_shader1","alphaMode":"MASK","doubleSided":true,"pbrMetallicRoughness":{"baseColorFactor":[0.699999988079071,0.699999988079071,0.699999988079071,1.0],"metallicFactor":0.0,"roughnessFactor":0.5}},{"extensions":{"KHR_materials_pbrSpecularGlossiness":{"diffuseFactor":[0.24000000953674317,0.24000000953674317,0.24000000953674317,1.0],"specularFactor":[0.009999999776482582,0.009999999776482582,0.009999999776482582],"glossinessFactor":0.0}},"name":"lambert1","alphaMode":"MASK","doubleSided":true,"pbrMetallicRoughness":{"baseColorFactor":[0.24000000953674317,0.24000000953674317,0.24000000953674317,1.0],"metallicFactor":0.0}},{"extensions":{"KHR_materials_pbrSpecularGlossiness":{"diffuseFactor":[0.0,0.0,0.0,1.0],"specularFactor":[1.0,1.0,1.0],"glossinessFactor":0.800000011920929}},"name":"black","alphaMode":"MASK","doubleSided":true,"pbrMetallicRoughness":{"baseColorFactor":[0.0,0.0,0.0,1.0],"metallicFactor":0.0,"roughnessFactor":0.20000000298023225}},{"extensions":{"KHR_materials_pbrSpecularGlossiness":{"diffuseFactor":[0.012180661782622338,0.0010015920270234347,0.0,1.0],"specularFactor":[0.0,0.0,0.0],"glossinessFactor":0.25}},"name":"brown","alphaMode":"MASK","doubleSided":true,"pbrMetallicRoughness":{"baseColorFactor":[0.012180661782622338,0.0010015920270234347,0.0,1.0],"metallicFactor":0.0}},{"extensions":{"KHR_materials_pbrSpecularGlossiness":{"diffuseFactor":[0.800000011920929,0.6226999759674072,0.5640000104904175,1.0],"specularFactor":[1.0,1.0,1.0],"glossinessFactor":0.38461536169052126}},"name":"skin","alphaMode":"MASK","doubleSided":true,"pbrMetallicRoughness":{"baseColorFactor":[0.800000011920929,0.6226999759674072,0.5640000104904175,1.0],"metallicFactor":0.0,"roughnessFactor":0.6153846383094788}}],"meshes":[{"primitives":[{"attributes":{"NORMAL":2,"POSITION":1},"indices":0,"material":0,"mode":4}]},{"primitives":[{"attributes":{"NORMAL":5,"POSITION":4},"indices":3,"material":1,"mode":4}]},{"primitives":[{"attributes":{"NORMAL":8,"POSITION":7},"indices":6,"material":2,"mode":4}]},{"primitives":[{"attributes":{"NORMAL":11,"POSITION":10},"indices":9,"material":3,"mode":4}]},{"primitives":[{"attributes":{"NORMAL":14,"POSITION":13},"indices":12,"material":1,"mode":4}]},{"primitives":[{"attributes":{"NORMAL":17,"POSITION":16},"indices":15,"material":1,"mode":4}]},{"primitives":[{"attributes":{"NORMAL":20,"POSITION":19},"indices":18,"material":1,"mode":4}]},{"primitives":[{"attributes":{"NORMAL":23,"POSITION":22},"indices":21,"material":1,"mode":4}]},{"primitives":[{"attributes":{"NORMAL":26,"POSITION":25},"indices":24,"material":1,"mode":4}]},{"primitives":[{"attributes":{"NORMAL":29,"POSITION":28},"indices":27,"material":1,"mode":4}]},{"primitives":[{"attributes":{"NORMAL":32,"POSITION":31},"indices":30,"material":1,"mode":4}]},{"primitives":[{"attributes":{"NORMAL":35,"POSITION":34},"indices":33,"material":1,"mode":4}]},{"primitives":[{"attributes":{"NORMAL":38,"POSITION":37},"indices":36,"material":1,"mode":4}]},{"primitives":[{"attributes":{"NORMAL":41,"POSITION":40},"indices":39,"material":1,"mode":4}]},{"primitives":[{"attributes":{"NORMAL":44,"POSITION":43},"indices":42,"material":1,"mode":4}]},{"primitives":[{"attributes":{"NORMAL":47,"POSITION":46},"indices":45,"material":4,"mode":4}]},{"primitives":[{"attributes":{"NORMAL":50,"POSITION":49},"indices":48,"material":1,"mode":4}]}],"nodes":[{"children":[1,2,3,4,5,6,7,9,11,27,37],"matrix":[1.0,0.0,0.0,0.0,0.0,4.4896593387466768e-11,-1.0,0.0,0.0,1.0,4.4896593387466768e-11,0.0,0.0,0.0,0.0,1.0]},{"extras":{},"name":"back","rotation":[0.0,0.7071067690849304,0.7071067690849304,-0.0],"translation":[0.0,10.00100040435791,0.0]},{"extras":{},"name":"front","rotation":[-0.7071067690849304,0.0,0.0,-0.7071067690849304],"translation":[-0.052428361028432849,-10.00100040435791,-0.025231994688510896]},{"extras":{},"name":"left","rotation":[-0.5,0.5,0.5,-0.5],"translation":[-10.00100040435791,0.0,0.0]},{"extras":{},"name":"persp","rotation":[-0.6506580114364624,0.02613312378525734,0.030456863343715669,-0.7583097219467163],"translation":[-0.08900140225887299,-1.256325602531433,0.19908595085144044]},{"extras":{},"name":"side","rotation":[-0.5,-0.5,-0.5,-0.5],"translation":[10.00100040435791,-0.06777898967266083,-0.03950027376413345]},{"extras":{},"name":"top","rotation":[0.0,0.0,0.0,-1.0],"translation":[-0.04012627527117729,-0.0009845190215855837,10.00100040435791]},{"extras":{},"name":"body","children":[8],"rotation":[-0.7071067690849304,0.0,0.0,-0.7071067690849304],"scale":[0.009999999776482582,0.009999999776482582,0.009999999776482582]},{"extras":{},"name":"Assembly-2","mesh":0,"rotation":[0.0,0.0,0.0,-1.0]},{"extras":{},"name":"Medium_length_hair_with_bangs","children":[10],"rotation":[-0.7071067690849304,0.0,0.0,-0.7071067690849304],"scale":[0.009999999776482582,0.009999999776482582,0.009999999776482582],"translation":[0.0,0.0,8.673617379884036e-19]},{"extras":{},"name":"Assembly-4","mesh":1,"rotation":[0.0,0.0,0.0,-1.0]},{"extras":{},"name":"Accessories","children":[12,14,16,18,22],"rotation":[-0.7071067690849304,0.0,0.0,-0.7071067690849304],"scale":[0.009999999776482582,0.009999999776482582,0.009999999776482582]},{"extras":{},"name":"round_glasses","children":[13],"rotation":[-0.10730043798685074,0.38807669281959536,0.043546341359615329,-0.9143231511116028],"scale":[1.2261968851089478,1.2261968851089478,1.2261968851089478],"translation":[-1.7501006126403809,-2.434985399246216,1.3495233058929444]},{"extras":{},"name":"Assembly-7","mesh":2,"rotation":[0.0,0.0,0.0,-1.0]},{"extras":{},"name":"square_glasses","children":[15],"rotation":[8.150054853217626e-9,0.9987318515777588,0.05034514144062996,-1.9436649267845497e-7],"scale":[1.568236231803894,1.568236231803894,1.568236231803894],"translation":[0.0,-1.1235435009002686,2.2591376304626467]},{"extras":{},"name":"Assembly-9","mesh":3,"rotation":[0.0,0.0,0.0,-1.0]},{"extras":{},"name":"pearl_necklace","children":[17],"rotation":[-0.10420241951942444,0.8734980225563049,0.15988652408123017,-0.44786086678504946],"scale":[1.1972451210021973,1.1972451210021973,1.1972451210021973],"translation":[-14.310211181640625,-0.8836984634399414,-10.14950180053711]},{"extras":{},"name":"Assembly-11","mesh":4,"rotation":[0.0,0.0,0.0,-1.0]},{"extras":{},"name":"Earring01","children":[19,21],"rotation":[0.0,0.0,0.0,-1.0]},{"extras":{},"name":"R_Earrings","children":[20],"rotation":[1.0,0.0,0.0,-0.0],"scale":[-1.0,-1.0,-1.0],"translation":[0.008905713446438313,0.0,0.0]},{"extras":{},"name":"Assembly-14","mesh":5,"rotation":[0.0,0.0,0.0,-1.0]},{"extras":{},"name":"L_Earrings","mesh":6,"rotation":[0.0,0.0,0.0,-1.0]},{"extras":{},"name":"Earring02","children":[23,25],"rotation":[0.0,0.0,0.0,-1.0]},{"extras":{},"name":"L","children":[24],"rotation":[0.9915430545806885,0.0,-0.1297781616449356,-0.0],"scale":[-1.0,-1.0,-1.0],"translation":[-1.2909033298492432,0.06765087693929672,1.0978394746780396]},{"extras":{},"name":"Assembly-19","mesh":7,"rotation":[0.0,0.0,0.0,-1.0]},{"extras":{},"name":"R","children":[26],"rotation":[3.1468413561634659e-33,0.20274260640144349,-7.867103390408664e-34,-0.9792320728302002],"translation":[0.9821279048919678,0.06765087693929672,1.7280759811401368]},{"extras":{},"name":"Assembly-21","mesh":8,"rotation":[0.0,0.0,0.0,-1.0]},{"extras":{},"name":"Hair","children":[28,30,32,34,36],"rotation":[-0.7071067690849304,0.0,0.0,-0.7071067690849304],"scale":[0.009999999776482582,0.009999999776482582,0.009999999776482582]},{"extras":{},"name":"bobbed_hair","children":[29],"rotation":[0.0,0.0,0.0,-1.0],"scale":[0.9704407453536987,1.0151853561401368,1.0151853561401368],"translation":[-0.000003750141104319482,-0.26287922263145449,0.014649761840701104]},{"extras":{},"name":"Assembly-24","mesh":9,"rotation":[0.0,0.0,0.0,-1.0]},{"extras":{},"name":"half_ponytail","children":[31],"rotation":[0.7071067690849304,0.0,0.0,-0.7071067690849304],"scale":[8.272806167602539,8.272806167602539,8.272806167602539],"translation":[0.0015273956814780832,-9.27843189239502,-1.6463409662246705]},{"extras":{},"name":"Assembly-28","mesh":10,"rotation":[0.0,0.0,0.0,-1.0]},{"extras":{},"name":"tied_down_hair","children":[33],"rotation":[5.776785152833739e-33,0.0,0.0,-1.0],"scale":[34.1392707824707,34.1392707824707,34.1392707824707],"translation":[0.014181231148540974,-50.52344512939453,-0.6521086692810059]},{"extras":{},"name":"Assembly-30","mesh":11,"rotation":[0.0,0.0,0.0,-1.0]},{"extras":{},"name":"tied_up_hair","children":[35],"rotation":[2.745505727944651e-33,0.0,0.0,-1.0],"scale":[36.31956100463867,37.12721633911133,35.916011810302737],"translation":[-0.009275908581912518,-55.22575759887695,-0.705944836139679]},{"extras":{},"name":"Assembly-32","mesh":12,"rotation":[0.0,0.0,0.0,-1.0]},{"extras":{},"name":"permed_hair","mesh":13,"rotation":[0.0,0.0,0.0,-1.0]},{"extras":{},"name":"cloth","children":[38,40,42],"rotation":[-0.7071067690849304,0.0,0.0,-0.7071067690849304],"scale":[0.009999999776482582,0.009999999776482582,0.009999999776482582]},{"extras":{},"name":"short_pants","children":[39],"rotation":[1.3917709850361878e-33,0.0,0.0,-1.0],"scale":[15.107818603515625,13.08743667602539,17.712614059448243],"translation":[0.009259244427084923,-22.75724983215332,-0.5882484912872315]},{"extras":{},"name":"Assembly-37","mesh":14,"rotation":[0.0,0.0,0.0,-1.0]},{"extras":{},"name":"long_skirt","children":[41],"rotation":[0.0,0.0,0.0,-1.0],"scale":[1.0444670915603638,1.0,1.0444670915603638],"translation":[0.001517836470156908,0.0,0.04184041544795036]},{"extras":{},"name":"Assembly-39","mesh":15,"rotation":[0.0,0.0,0.0,-1.0]},{"extras":{},"name":"tshirt","mesh":16,"rotation":[0.0,0.0,0.0,-1.0]}],"scene":0,"scenes":[{"nodes":[0]}]}